<?xml version="1.0" encoding="UTF-8"?>
<!DOCTYPE svg PUBLIC "-//W3C//DTD SVG 1.1//EN" "http://www.w3.org/Graphics/SVG/1.1/DTD/svg11.dtd">
<svg xmlns="http://www.w3.org/2000/svg" version="1.1" width="512px" height="512px" style="shape-rendering:geometricPrecision; text-rendering:geometricPrecision; image-rendering:optimizeQuality; fill-rule:evenodd; clip-rule:evenodd" xmlns:xlink="http://www.w3.org/1999/xlink">
<g><path style="opacity:0.999" fill="#00b156" d="M 335.5,199.5 C 335.5,210.833 335.5,222.167 335.5,233.5C 335.333,284.834 335.5,336.168 336,387.5C 343.623,392.133 348.623,398.8 351,407.5C 351.667,423.5 351.667,439.5 351,455.5C 347.833,468 340,475.833 327.5,479C 242.167,479.667 156.833,479.667 71.5,479C 59,475.833 51.1667,468 48,455.5C 47.3333,439.5 47.3333,423.5 48,407.5C 50.3766,398.8 55.3766,392.133 63,387.5C 63.3333,281.5 63.6667,175.5 64,69.5C 69.1667,49.6667 81.6667,37.1667 101.5,32C 166.833,31.3333 232.167,31.3333 297.5,32C 317.333,37.1667 329.833,49.6667 335,69.5C 335.5,112.832 335.667,156.165 335.5,199.5 Z"/></g>
<g><path style="opacity:1" fill="#e9eeef" d="M 122.5,79.5 C 174.559,79.0133 226.559,79.5133 278.5,81C 282.817,83.3151 285.65,86.8151 287,91.5C 287.977,121.895 287.643,152.228 286,182.5C 283.685,186.817 280.185,189.65 275.5,191C 223.775,191.986 172.108,191.653 120.5,190C 116.183,187.685 113.35,184.185 112,179.5C 111.333,149.833 111.333,120.167 112,90.5C 114.357,85.6455 117.857,81.9788 122.5,79.5 Z"/></g>
<g><path style="opacity:0.992" fill="#8ea5a5" d="M 407.5,127.5 C 397.828,127.334 388.161,127.5 378.5,128C 377.473,128.513 376.473,129.013 375.5,129.5C 375.333,116.163 375.5,102.829 376,89.5C 378.807,82.513 383.973,79.1797 391.5,79.5C 399.027,79.1797 404.193,82.513 407,89.5C 407.5,102.162 407.667,114.829 407.5,127.5 Z"/></g>
<g><path style="opacity:0.992" fill="#8ea5a5" d="M 455.5,129.5 C 454.234,128.91 452.901,128.41 451.5,128C 442.173,127.5 432.839,127.334 423.5,127.5C 423.333,114.829 423.5,102.162 424,89.5C 426.807,82.513 431.973,79.1797 439.5,79.5C 447.027,79.1797 452.193,82.513 455,89.5C 455.5,102.829 455.667,116.163 455.5,129.5 Z"/></g>
<g><path style="opacity:0.994" fill="#d8e0e1" d="M 407.5,127.5 C 412.833,127.5 418.167,127.5 423.5,127.5C 432.839,127.334 442.173,127.5 451.5,128C 452.901,128.41 454.234,128.91 455.5,129.5C 459.153,130.989 461.653,133.656 463,137.5C 463.915,149.558 463.581,161.558 462,173.5C 456.768,188.898 446.601,199.565 431.5,205.5C 431.565,205.062 431.399,204.728 431,204.5C 420.589,207.994 410.089,208.327 399.5,205.5C 384.399,199.565 374.232,188.898 369,173.5C 367.419,161.558 367.085,149.558 368,137.5C 369.347,133.656 371.847,130.989 375.5,129.5C 376.473,129.013 377.473,128.513 378.5,128C 388.161,127.5 397.828,127.334 407.5,127.5 Z"/></g>
<g><path style="opacity:0.993" fill="#8fa5a5" d="M 335.5,199.5 C 361.216,204.049 377.049,219.049 383,244.5C 383.333,273.167 383.667,301.833 384,330.5C 385.866,337.347 390.032,339.18 396.5,336C 397.717,334.352 398.55,332.519 399,330.5C 399.5,288.835 399.667,247.168 399.5,205.5C 410.089,208.327 420.589,207.994 431,204.5C 431.399,204.728 431.565,205.062 431.5,205.5C 431.667,250.168 431.5,294.835 431,339.5C 425.294,359.281 412.127,369.948 391.5,371.5C 370.873,369.948 357.706,359.281 352,339.5C 351.953,309.132 351.286,278.799 350,248.5C 347.705,241.038 342.871,236.038 335.5,233.5C 335.5,222.167 335.5,210.833 335.5,199.5 Z"/></g>
<g><path style="opacity:1" fill="#f9c000" d="M 203.5,239.5 C 214.889,238.684 221.556,243.851 223.5,255C 223.135,258.763 221.968,262.263 220,265.5C 215.043,272.58 210.21,279.747 205.5,287C 212.833,287.333 220.167,287.667 227.5,288C 239.331,293.496 242.164,301.996 236,313.5C 225.333,329.5 214.667,345.5 204,361.5C 195.593,369.423 187.26,369.423 179,361.5C 175.294,356.185 174.627,350.518 177,344.5C 182.5,336.333 188,328.167 193.5,320C 185.091,319.907 176.757,319.24 168.5,318C 160.463,312.761 157.963,305.594 161,296.5C 172.581,279.672 183.915,262.672 195,245.5C 197.637,243.109 200.47,241.109 203.5,239.5 Z"/></g>
</svg>
